<mxfile host="65bd71144e">
    <diagram id="jOfvybD8jpQFysVWctY9" name="Page-1">
        <mxGraphModel dx="790" dy="469" grid="1" gridSize="10" guides="1" tooltips="1" connect="1" arrows="1" fold="1" page="1" pageScale="1" pageWidth="827" pageHeight="1169" math="0" shadow="0">
            <root>
                <mxCell id="0"/>
                <mxCell id="1" parent="0"/>
                <mxCell id="2" value="ADD NEWTODO&amp;nbsp; -&amp;gt; ADD NEW THINGS AND WE WILL USE STATE HERE" style="whiteSpace=wrap;html=1;" vertex="1" parent="1">
                    <mxGeometry x="150" y="50" width="310" height="90" as="geometry"/>
                </mxCell>
                <mxCell id="3" value="UPDATE EXISTING TODO&amp;nbsp;" style="whiteSpace=wrap;html=1;" vertex="1" parent="1">
                    <mxGeometry x="150" y="170" width="310" height="90" as="geometry"/>
                </mxCell>
                <mxCell id="4" value="" style="whiteSpace=wrap;html=1;" vertex="1" parent="1">
                    <mxGeometry x="150" y="290" width="310" height="90" as="geometry"/>
                </mxCell>
            </root>
        </mxGraphModel>
    </diagram>
</mxfile>